HIERARCHY
ROOT Hips
{
	OFFSET 0.00000 0.00000 0.00000
	CHANNELS 6 Xposition Yposition Zposition Zrotation Yrotation Xrotation 
	JOINT LHipJoint
	{
		OFFSET 0 0 0
		CHANNELS 3 Zrotation Yrotation Xrotation
		JOINT LeftHip
		{
			OFFSET 1.70593 -1.62653 0.87602
			CHANNELS 3 Zrotation Yrotation Xrotation
			JOINT LeftKnee
			{
				OFFSET 2.32330 -6.38322 0.00000
				CHANNELS 3 Zrotation Yrotation Xrotation
				JOINT LeftAnkle
				{
					OFFSET 2.45016 -6.73177 0.00000
					CHANNELS 3 Zrotation Yrotation Xrotation
					JOINT LeftToe
					{
						OFFSET 0.13029 -0.35798 1.96980
						CHANNELS 3 Zrotation Yrotation Xrotation
						End Site
						{
							OFFSET 0.00000 -0.00000 1.01270
						}
					}
				}
			}
		}
	}
	JOINT RHipJoint
	{
		OFFSET 0 0 0
		CHANNELS 3 Zrotation Yrotation Xrotation
		JOINT RightHip
		{
			OFFSET -1.80599 -1.62652 0.87602
			CHANNELS 3 Zrotation Yrotation Xrotation
			JOINT RightKnee
			{
				OFFSET -2.45375 -6.74162 0.00000
				CHANNELS 3 Zrotation Yrotation Xrotation
				JOINT RightAnkle
				{
					OFFSET -2.45828 -6.75406 0.00000
					CHANNELS 3 Zrotation Yrotation Xrotation
					JOINT RightToe
					{
						OFFSET -0.13801 -0.37917 1.88456
						CHANNELS 3 Zrotation Yrotation Xrotation
						End Site
						{
							OFFSET -0.00000 -0.00000 0.97281
						}
					}
				}
			}
		}
	}
	JOINT lowerback
	{
		OFFSET 0 0 0
		CHANNELS 3 Zrotation Yrotation Xrotation
		JOINT Chest
		{
			OFFSET 0.01003 2.00576 -0.14267
			CHANNELS 3 Zrotation Yrotation Xrotation
			JOINT Chest2
			{
				OFFSET 0.00908 2.01191 0.01660
				CHANNELS 3 Zrotation Yrotation Xrotation
				JOINT lowerneck
				{
					OFFSET 0 0 0
					CHANNELS 3 Zrotation Yrotation Xrotation
					JOINT Neck
					{
						OFFSET -0.05849 1.60301 0.18934
						CHANNELS 3 Zrotation Yrotation Xrotation
						JOINT Head
						{
							OFFSET 0.01775 1.59435 -0.07960
							CHANNELS 3 Zrotation Yrotation Xrotation
							End Site
							{
								OFFSET 0.01210 1.70732 -0.05248
							}
						}
					}
				}
				JOINT LeftCollar
				{
					OFFSET 0 0 0
					CHANNELS 3 Zrotation Yrotation Xrotation
					JOINT LeftShoulder
					{
						OFFSET 3.15315 1.26460 0.30667
CHANNELS 3 Zrotation Xrotation Yrotation
						JOINT LeftElbow
						{
OFFSET 0 -4.976940 -0.000000
CHANNELS 3 Zrotation Xrotation Yrotation
							JOINT LeftWrist
							{
OFFSET 0 -3.143910 -0.000000
CHANNELS 3 Zrotation Xrotation Yrotation
								JOINT lhand
								{
									OFFSET 0 0 0
CHANNELS 3 Zrotation Xrotation Yrotation
									JOINT LFingers
									{
OFFSET 0 -0.593580 -0.000000
CHANNELS 3 Zrotation Xrotation Yrotation
										End Site
										{
OFFSET 0 -0.478560 -0.000000
										}
									}
								}
								JOINT LThumb
								{
OFFSET 0 0.000000 0.000000
CHANNELS 3 Zrotation Xrotation Yrotation
									End Site
									{
OFFSET 0 -0.485870 0.485870
									}
								}
							}
						}
					}
				}
				JOINT RightCollar
				{
					OFFSET 0 0 0
					CHANNELS 3 Zrotation Yrotation Xrotation
					JOINT RightShoulder
					{
						OFFSET -3.25568 1.35581 0.18982
CHANNELS 3 Zrotation Xrotation Yrotation
						JOINT RightElbow
						{
OFFSET 0 -4.904730 0.000000
CHANNELS 3 Zrotation Xrotation Yrotation
							JOINT RightWrist
							{
OFFSET 0 -3.216210 -0.000040
CHANNELS 3 Zrotation Xrotation Yrotation
								JOINT rhand
								{
									OFFSET 0 0 0
CHANNELS 3 Zrotation Xrotation Yrotation
									JOINT RFingers
									{
OFFSET 0 -0.623530 -0.000000
CHANNELS 3 Zrotation Xrotation Yrotation
										End Site
										{
OFFSET 0 -0.502700 -0.000000
										}
									}
								}
								JOINT RThumb
								{
OFFSET 0 0.000000 0.000000
CHANNELS 3 Zrotation Xrotation Yrotation
									End Site
									{
OFFSET 0 -0.510380 0.510380
									}
								}
							}
						}
					}
				}
			}
		}
	}
}
MOTION
Frames: 11
Frame Time: 0.008333333333333333
9.656114 16.072061 4.694976 0.215326 -13.897807 7.459093 0.000000 0.000000 0.000000 -18.947118 -7.328001 -37.339675 3.577678 11.576067 34.248376 0.116544 -2.784342 -6.091681 0.001178 -0.134466 -0.369487 0.000000 0.000000 0.000000 18.652400 6.311203 2.351538 -7.083332 -15.393996 49.175651 -1.531527 -14.208700 22.868476 -0.014244 -0.568830 1.563500 -2.213384 4.494793 -0.820737 -1.020008 5.955529 -3.167125 0.073644 3.015976 -2.914256 -1.578761 -1.568978 -10.559481 5.013952 -2.528696 11.214928 1.630384 -0.964209 5.193147 0.000000 0.000000 0.000000 1.530157 21.422428 10.378341 6.441266 -10.996082 0.620694 18.617735 6.504138 3.414159 0.000000 0.000000 0.000000 -7.125000 0.000000 0.000000 -6.077056 26.367621 -2.757976 0.000000 0.000000 0.000000 -4.458328 7.418297 37.471946 -57.944162 -55.731054 -32.637550 -30.018410 6.159905 35.585391 0.000000 0.000000 0.000000 7.125000 0.000000 0.000000 4.989618 69.491211 -2.926402
9.656943 16.086783 4.809729 0.357377 -13.971222 7.340879 0.000000 0.000000 0.000000 -19.315555 -7.047603 -36.946426 3.606634 11.617600 34.392329 0.117031 -3.133426 -6.139844 0.000934 0.069203 0.190139 0.000000 0.000000 0.000000 18.527801 6.573808 1.531013 -7.505197 -15.734987 50.746552 -1.539180 -14.208700 22.919027 -0.006932 0.023311 -0.063901 -2.362553 4.485580 -0.599812 -1.083624 5.933788 -3.151574 0.072133 3.008127 -3.030569 -1.599284 -1.562933 -10.529842 4.990455 -2.511488 11.152385 1.627751 -0.959627 5.168042 0.000000 0.000000 0.000000 1.527671 21.128283 10.205822 6.412797 -10.948845 0.615283 19.031605 6.929415 3.793076 0.000000 0.000000 0.000000 -7.125000 0.000000 0.000000 -5.749567 25.961064 -2.662527 0.000000 0.000000 0.000000 -4.214783 7.807890 37.055639 -56.860886 -55.407563 -31.744049 -30.323231 6.474914 35.809972 0.000000 0.000000 0.000000 7.125000 0.000000 0.000000 4.744855 69.817432 -2.817207
9.658493 16.100149 4.926100 0.559374 -13.995954 7.208669 0.000000 0.000000 0.000000 -19.756643 -6.815165 -36.493559 3.629423 11.650210 34.505489 0.122199 -3.481132 -6.304398 0.003053 -0.006930 -0.019089 0.000000 0.000000 0.000000 18.324754 6.784712 0.736666 -7.925399 -16.058002 52.283709 -1.510573 -13.903026 22.661980 -0.030215 0.777267 -2.139216 -2.540524 4.447433 -0.427896 -1.166551 5.873730 -3.117434 0.073334 2.981296 -3.100036 -1.547374 -1.548337 -10.598661 4.886390 -2.487325 11.183181 1.588290 -0.951370 5.186436 0.000000 0.000000 0.000000 1.525010 20.829217 9.922532 6.407269 -10.939683 0.614225 19.386098 7.292975 4.165192 0.000000 0.000000 0.000000 -7.125000 0.000000 0.000000 -5.469733 25.561089 -2.584006 0.000000 0.000000 0.000000 -3.969839 8.101213 36.720163 -55.605626 -55.009977 -30.714147 -30.586915 6.612515 35.983423 0.000000 0.000000 0.000000 7.125000 0.000000 0.000000 4.512973 70.078831 -2.706525
9.660931 16.111848 5.044460 0.835043 -13.960855 7.059257 0.000000 0.000000 0.000000 -20.287021 -6.641672 -35.967423 3.644633 11.671854 34.580804 0.133118 -3.827144 -6.611998 0.008074 -0.426942 -1.173245 0.000000 0.000000 0.000000 18.025295 6.932077 -0.025508 -8.343559 -16.358923 53.779392 -1.437403 -13.221676 22.026893 -0.091102 1.730093 -4.765022 -2.753894 4.373726 -0.316215 -1.273212 5.766582 -3.060448 0.077867 2.931134 -3.111931 -1.406444 -1.523232 -10.788485 4.683307 -2.454616 11.328694 1.503566 -0.938598 5.258290 0.000000 0.000000 0.000000 1.522134 20.524104 9.503105 6.429937 -10.977317 0.618514 19.667617 7.580686 4.528949 0.000000 0.000000 0.000000 -7.125000 0.000000 0.000000 -5.248466 25.169204 -2.526289 0.000000 0.000000 0.000000 -3.723174 8.276218 36.484028 -54.138996 -54.521328 -29.516606 -30.800041 6.532081 36.094032 0.000000 0.000000 0.000000 7.125000 0.000000 0.000000 4.296922 70.260563 -2.594014
9.663446 16.123528 5.162820 1.141833 -13.900659 6.905507 0.000000 0.000000 0.000000 -20.848460 -6.483380 -35.418010 3.652716 11.683370 34.620855 0.145026 -4.167018 -6.933347 0.016522 -0.795480 -2.186380 0.000000 0.000000 0.000000 17.704051 7.096135 -0.781000 -8.762958 -16.647663 55.259215 -1.333170 -12.558376 21.148921 -0.152724 2.489187 -6.861237 -2.987229 4.295933 -0.207613 -1.392285 5.653237 -2.997884 0.081684 2.878068 -3.116602 -1.262570 -1.498340 -11.010650 4.495832 -2.425353 11.484373 1.422774 -0.925942 5.339227 0.000000 0.000000 0.000000 1.526810 20.221586 8.988458 6.550595 -11.176769 0.642344 19.576019 7.780437 4.664909 0.000000 0.000000 0.000000 -7.125000 0.000000 0.000000 -5.313559 25.028066 -2.575508 0.000000 0.000000 0.000000 -3.438476 8.406682 36.215746 -52.624049 -53.988119 -28.286821 -30.909212 6.503934 36.322074 0.000000 0.000000 0.000000 7.125000 0.000000 0.000000 4.346316 70.527697 -2.653103
9.666078 16.135179 5.281180 1.495840 -13.802383 6.745175 0.000000 0.000000 0.000000 -21.457029 -6.348153 -34.833278 3.649986 11.679519 34.607401 0.158431 -4.497578 -7.275557 0.030172 -1.085920 -2.985553 0.000000 0.000000 0.000000 17.349751 7.285521 -1.526356 -9.184237 -16.917921 56.714974 -1.181808 -11.922459 19.902437 -0.215462 2.954339 -8.153934 -3.250858 4.211940 -0.103682 -1.530193 5.530490 -2.926859 0.084414 2.820594 -3.110313 -1.114231 -1.473771 -11.281884 4.332039 -2.401320 11.655478 1.347946 -0.913463 5.433945 0.000000 0.000000 0.000000 1.542946 19.923005 8.329337 6.819927 -11.621740 0.695821 18.918312 7.846734 4.455244 0.000000 0.000000 0.000000 -7.125000 0.000000 0.000000 -5.813127 25.267369 -2.786976 0.000000 0.000000 0.000000 -3.096071 8.469566 35.898690 -51.035793 -53.387301 -27.008114 -30.860659 6.555119 36.728290 0.000000 0.000000 0.000000 7.125000 0.000000 0.000000 4.798453 70.924408 -2.972548
9.668407 16.148044 5.397550 1.789332 -13.717377 6.611366 0.000000 0.000000 0.000000 -21.992942 -6.188629 -34.266218 3.641725 11.667760 34.566496 0.170033 -4.820803 -7.577300 0.037970 -1.256560 -3.455035 0.000000 0.000000 0.000000 17.071918 7.498159 -2.362645 -9.608417 -17.179446 58.165540 -1.060071 -11.039573 18.823050 -0.350368 3.679428 -10.192278 -3.473092 4.139262 0.010787 -1.645608 5.422918 -2.870705 0.085424 2.770253 -3.123820 -1.048765 -1.445931 -11.416961 4.265705 -2.368283 11.725617 1.318492 -0.896448 5.476054 0.000000 0.000000 0.000000 1.611706 19.479736 8.078651 6.929228 -11.802425 0.717378 18.370188 8.321230 4.397602 0.000000 0.000000 0.000000 -7.125000 0.000000 0.000000 -6.225489 25.343926 -2.979021 0.000000 0.000000 0.000000 -2.782262 8.605276 35.584162 -49.593558 -52.823713 -25.851721 -30.886347 6.661391 37.172445 0.000000 0.000000 0.000000 7.125000 0.000000 0.000000 5.191727 71.382814 -3.267358
9.670162 16.163205 5.510158 1.968383 -13.657466 6.527714 0.000000 0.000000 0.000000 -22.391456 -5.983157 -33.732574 3.623006 11.641046 34.473680 0.178222 -5.130157 -7.802515 0.034704 -1.200646 -3.301040 0.000000 0.000000 0.000000 16.938690 7.754768 -3.370898 -10.038081 -17.424453 59.606284 -0.994359 -9.689646 18.059658 -0.621747 4.896078 -13.640705 -3.617044 4.087979 0.145185 -1.718486 5.344044 -2.842675 0.083182 2.733399 -3.174762 -1.140021 -1.411905 -11.294555 4.383675 -2.318219 11.604820 1.374844 -0.870855 5.418678 0.000000 0.000000 0.000000 1.779983 18.762849 8.600351 6.735893 -11.483321 0.678575 18.029294 9.567665 4.627448 0.000000 0.000000 0.000000 -7.125000 0.000000 0.000000 -6.472933 25.112715 -3.134331 0.000000 0.000000 0.000000 -2.522533 8.878703 35.274418 -48.427459 -52.330530 -24.926631 -31.052431 6.871836 37.688344 0.000000 0.000000 0.000000 7.125000 0.000000 0.000000 5.473684 71.957893 -3.515583
9.672017 16.177518 5.621631 2.095145 -13.595703 6.464278 0.000000 0.000000 0.000000 -22.731752 -5.801532 -33.190690 3.599305 11.607096 34.355925 0.188881 -5.393065 -8.057091 0.032816 -1.168680 -3.212988 0.000000 0.000000 0.000000 16.861225 7.993129 -4.428942 -10.461040 -17.658003 61.014467 -0.931848 -8.276446 17.345381 -0.962501 6.156217 -17.269962 -3.722491 4.031685 0.266590 -1.763482 5.260489 -2.816554 0.089640 2.693660 -3.219128 -1.270745 -1.370643 -11.125000 4.522104 -2.253669 11.455179 1.445195 -0.839534 5.344460 0.000000 0.000000 0.000000 1.888679 18.088747 8.987926 6.575251 -11.218028 0.646520 17.880356 10.748976 4.863669 0.000000 0.000000 0.000000 -7.125000 0.000000 0.000000 -6.576790 24.869486 -3.220483 0.000000 0.000000 0.000000 -2.319056 9.172689 35.009196 -47.300957 -51.842330 -24.036215 -31.218472 6.923762 38.004878 0.000000 0.000000 0.000000 7.125000 0.000000 0.000000 5.545136 72.332502 -3.604398
9.674114 16.189803 5.730388 2.096656 -13.529503 6.449264 0.000000 0.000000 0.000000 -22.932593 -5.677029 -32.629065 3.563670 11.555813 34.178434 0.205456 -5.544720 -8.381996 0.034230 -1.194078 -3.282893 0.000000 0.000000 0.000000 16.917334 8.187779 -5.606253 -10.867939 -17.864109 62.344651 -0.877007 -6.711687 16.748756 -1.469431 7.520525 -21.332370 -3.735702 3.963390 0.356871 -1.741692 5.165724 -2.795008 0.116939 2.647008 -3.247743 -1.496009 -1.312048 -10.842506 4.709539 -2.154418 11.236447 1.549077 -0.794491 5.229903 0.000000 0.000000 0.000000 1.854653 17.517129 9.054223 6.492915 -11.081632 0.630628 18.191222 11.774291 5.115160 0.000000 0.000000 0.000000 -7.125000 0.000000 0.000000 -6.336707 24.597473 -3.140975 0.000000 0.000000 0.000000 -2.250322 9.515924 34.850619 -46.269305 -51.366062 -23.228852 -31.384410 6.595981 37.843864 0.000000 0.000000 0.000000 7.125000 0.000000 0.000000 5.112352 72.226914 -3.311375
9.676233 16.200795 5.839867 2.106986 -13.476994 6.433289 0.000000 0.000000 0.000000 -23.148441 -5.552835 -32.053335 3.523875 11.498201 33.979406 0.222943 -5.680741 -8.712709 0.035893 -1.223150 -3.362944 0.000000 0.000000 0.000000 16.950163 8.409703 -6.729419 -11.257437 -18.057129 63.612784 -0.811497 -5.420106 16.045488 -1.818963 8.475024 -24.168374 -3.754768 3.899942 0.438025 -1.724382 5.077595 -2.773899 0.143349 2.603723 -3.271984 -1.689009 -1.250193 -10.590474 4.863858 -2.053022 11.049185 1.637301 -0.748464 5.129427 0.000000 0.000000 0.000000 1.831199 16.957482 8.909737 6.425337 -10.969676 0.617604 18.489902 12.619309 5.375018 0.000000 0.000000 0.000000 -7.125000 0.000000 0.000000 -6.106236 24.316440 -3.066161 0.000000 0.000000 0.000000 -2.161496 9.826811 34.660157 -45.180983 -50.850147 -22.380999 -31.303128 6.105433 37.721905 0.000000 0.000000 0.000000 7.125000 0.000000 0.000000 5.100827 72.077292 -3.282782
